<svg width="20" height="18" viewBox="0 0 20 18" fill="none" xmlns="http://www.w3.org/2000/svg">
<path d="M19.9449 9.8378L10.673 0.275648C10.5892 0.189123 10.4856 0.11973 10.3692 0.0721718C10.2528 0.0246133 10.1263 0 9.99835 0C9.8704 0 9.74393 0.0246133 9.62753 0.0721718C9.51113 0.11973 9.40752 0.189123 9.32371 0.275648L0.0546433 9.8378C0.0266341 9.86662 0.0084728 9.90204 0.00232313 9.93984C-0.00382655 9.97764 0.00229442 10.0162 0.0199569 10.051C0.0376193 10.0858 0.0660788 10.1153 0.101945 10.136C0.137812 10.1567 0.179574 10.1677 0.222257 10.1678H2.48505C2.61355 10.1678 2.73647 10.1178 2.82307 10.0303L8.93819 3.72302V17.8C8.93819 17.91 9.03876 18 9.16168 18H10.8378C10.9607 18 11.0613 17.91 11.0613 17.8V3.72302L17.1764 10.0303C17.2602 10.1178 17.3832 10.1678 17.5145 10.1678H19.7772C19.9672 10.1678 20.0706 9.96779 19.9449 9.8378Z" fill="#B93C91"/>
</svg>
