<svg width="26" height="34" viewBox="0 0 26 34" fill="none" xmlns="http://www.w3.org/2000/svg">
<path d="M21.375 7.99583C20.9792 3.515 17.2425 0 12.6667 0C8.09083 0 4.35417 3.515 3.95833 7.99583C1.72583 8.36 0 10.2917 0 12.6667C0 15.295 2.12167 17.4167 4.75 17.4167L12.6667 33.25L20.5833 17.4167C23.2117 17.4167 25.3333 15.295 25.3333 12.6667C25.3333 10.2917 23.6075 8.36 21.375 7.99583ZM12.6667 26.1725L7.7425 16.3242C7.8375 16.245 7.91667 16.1658 8.04333 16.0867C9.42932 16.9543 11.0315 17.4145 12.6667 17.4145C14.3018 17.4145 15.904 16.9543 17.29 16.0867C17.4167 16.1658 17.4958 16.245 17.5908 16.3242L12.6667 26.1725Z" fill="#B93C91"/>
</svg>
