<svg width="21" height="21" viewBox="0 0 21 21" fill="none" xmlns="http://www.w3.org/2000/svg">
<path d="M15.7519 0H5.2482C2.35437 0 0 2.34475 0 5.22676V15.7732C0 18.655 2.35437 21 5.2482 21H15.7519C18.6457 21 21 18.655 21 15.7732V5.22674C21 2.34475 18.6457 2.10446e-05 15.7519 2.10446e-05V0ZM19.0563 15.7731C19.0563 17.5876 17.574 19.0641 15.7519 19.0641H5.24823C3.42612 19.0641 1.9438 17.5876 1.9438 15.7731V8.9616H6.09597C5.79283 9.60231 5.62234 10.3171 5.62234 11.0708C5.62234 13.8085 7.85864 16.0355 10.6075 16.0355C13.3563 16.0355 15.5926 13.8085 15.5926 11.0708C15.5926 10.3171 15.4221 9.60229 15.1189 8.9616H19.0563V15.7731H19.0563ZM8.53804 11.0708C8.53804 9.93456 9.46636 9.00995 10.6075 9.00995C11.7487 9.00995 12.677 9.93459 12.677 11.0708C12.677 12.2074 11.7487 13.1318 10.6075 13.1318C9.46638 13.1318 8.53804 12.2074 8.53804 11.0708ZM19.0563 7.0258H13.4924C12.6773 6.44771 11.6821 6.10619 10.6075 6.10619C9.53291 6.10619 8.53757 6.44771 7.72267 7.0258H1.9438V5.22676C1.9438 3.4121 3.42612 1.93584 5.24823 1.93584H15.7519C17.574 1.93584 19.0563 3.4121 19.0563 5.22676V7.0258H19.0563H19.0563ZM16.95 3.1099H15.1482C14.8274 3.1099 14.5651 3.37125 14.5651 3.69065V5.48516C14.5651 5.80454 14.8274 6.06591 15.1482 6.06591H16.95C17.2708 6.06591 17.5331 5.80454 17.5331 5.48516V3.69065C17.5331 3.37125 17.2708 3.1099 16.95 3.1099Z" fill="#B93C91"/>
</svg>
