<svg width="22" height="23" viewBox="0 0 22 23" fill="none" xmlns="http://www.w3.org/2000/svg">
<path d="M0.785714 4.22449H21.2143C21.6482 4.22449 22 3.80421 22 3.28571V0.938776C22 0.420278 21.6482 0 21.2143 0H0.785714C0.351754 0 0 0.420278 0 0.938776V3.28571C0 3.80421 0.351754 4.22449 0.785714 4.22449ZM0.785714 13.6122H21.2143C21.6482 13.6122 22 13.192 22 12.6735V10.3265C22 9.80803 21.6482 9.38776 21.2143 9.38776H0.785714C0.351754 9.38776 0 9.80803 0 10.3265V12.6735C0 13.192 0.351754 13.6122 0.785714 13.6122ZM0.785714 23H21.2143C21.6482 23 22 22.5797 22 22.0612V19.7143C22 19.1958 21.6482 18.7755 21.2143 18.7755H0.785714C0.351754 18.7755 0 19.1958 0 19.7143V22.0612C0 22.5797 0.351754 23 0.785714 23Z" fill="#B93C91"/>
</svg>
