<svg width="20" height="17" viewBox="0 0 20 17" fill="none" xmlns="http://www.w3.org/2000/svg">
<path d="M19.4145 0.271927C19.4145 0.271927 18.3588 1.15798 16.8778 1.3175C16.8778 1.3175 14.5458 -1.39427 11.2091 0.963161C9.71136 2.0619 9.5749 4.3836 9.83025 5.21691C9.83025 5.21691 5.30223 5.58911 1.35273 0.767914C1.35273 0.767914 -0.417544 3.95823 2.51057 6.51047C2.51057 6.51047 1.64484 6.65255 0.822421 5.94345C0.822421 5.94345 0.433477 9.2401 3.97442 10.1619C3.97442 10.1619 3.73624 10.5873 2.30629 10.1619C2.30629 10.1619 2.54448 12.8558 5.91506 13.2459C5.91506 13.2459 4.09413 15.1954 0 14.9474C0 14.9474 6.76608 20.2288 14.0862 13.8482C18.1717 10.2325 18.0357 5.02166 17.9674 4.24195C17.9674 4.24195 19.5812 2.96583 20 2.15038C20 2.15038 18.7506 2.57576 17.7293 2.57576C17.7293 2.57576 19.091 1.83135 19.4145 0.271927Z" fill="#B93C91"/>
</svg>
