<svg width="22" height="22" viewBox="0 0 22 22" fill="none" xmlns="http://www.w3.org/2000/svg">
<path d="M9.34701 8.58017L9.32366 8.5669V8.59375V13.4241V13.451L9.34701 13.4377L13.597 11.0225L13.6209 11.0089L13.597 10.9953L9.34701 8.58017ZM17.3441 5.64454L17.3442 5.64456C18.0396 5.8306 18.5845 6.3799 18.7706 7.07991C18.9398 7.71654 19.0246 8.69941 19.067 9.52424C19.0882 9.93642 19.0988 10.3087 19.1041 10.578C19.1067 10.7126 19.1081 10.8215 19.1087 10.8967L19.1093 10.9833L19.1094 11.0058L19.1094 11.0115L19.1094 11.0129V11.0133V11.0134L19.125 11.0134L19.1094 11.0134V11.0135V11.0139L19.1094 11.0153L19.1094 11.021L19.1093 11.0435L19.1087 11.1301C19.1081 11.2053 19.1067 11.3141 19.1041 11.4487C19.0988 11.7179 19.0882 12.0901 19.067 12.502C19.0246 13.3263 18.9398 14.308 18.7706 14.9424L18.7857 14.9464L18.7706 14.9424C18.5846 15.6422 18.0399 16.1693 17.3442 16.3554L17.3441 16.3555C17.0299 16.4409 16.4767 16.5053 15.8222 16.5537C15.1681 16.602 14.4143 16.6342 13.6999 16.6557C12.9854 16.6772 12.3105 16.6879 11.8141 16.6933C11.5659 16.696 11.3624 16.6973 11.2209 16.698L11.0574 16.6986L11.0146 16.6987L11.0037 16.6987L11.0009 16.6987H11.0002H11.0001L11 16.7143L10.9999 16.6987H10.9998H10.9991L10.9963 16.6987L10.9854 16.6987L10.9426 16.6986L10.7791 16.698C10.6376 16.6973 10.4341 16.696 10.1859 16.6934C9.68954 16.6881 9.01457 16.6775 8.30013 16.6563C7.58567 16.6351 6.83187 16.6033 6.17782 16.5556C5.52333 16.5078 4.97006 16.4443 4.65584 16.3599L4.65582 16.3599C3.96013 16.1738 3.4154 15.6466 3.22939 14.9469C3.06021 14.3102 2.97543 13.3274 2.93302 12.5025C2.91182 12.0904 2.90122 11.718 2.89592 11.4488C2.89327 11.3141 2.89195 11.2053 2.89129 11.1301L2.89071 11.0435L2.89064 11.021L2.89063 11.0153L2.89063 11.0139L2.89062 11.0135V11.0134L2.875 11.0134L2.89062 11.0134V11.0133L2.89063 11.0129L2.89063 11.0115L2.89064 11.0057L2.89071 10.9832L2.89129 10.8965C2.89195 10.8212 2.89327 10.7122 2.89592 10.5774C2.90122 10.3078 2.91182 9.93503 2.93302 9.52256C2.97543 8.69717 3.06021 7.71431 3.22938 7.07992L3.22939 7.07991C3.41546 6.3799 3.9604 5.8306 4.65582 5.64456L4.65589 5.64454C4.97009 5.55905 5.52335 5.49467 6.17784 5.44632C6.83188 5.398 7.58567 5.36578 8.30013 5.3443C9.01457 5.32282 9.68955 5.31208 10.1859 5.30671C10.4341 5.30402 10.6376 5.30268 10.7791 5.30201L10.9426 5.30142L10.9854 5.30135L10.9963 5.30134L10.9991 5.30134H10.9998H10.9999L11 5.28571L11.0001 5.30134H11.0002H11.0009L11.0037 5.30134L11.0146 5.30135L11.0574 5.30142L11.2209 5.30201C11.3624 5.30268 11.5659 5.30402 11.8141 5.30671C12.3105 5.31208 12.9854 5.32282 13.6999 5.3443C14.4143 5.36578 15.1681 5.398 15.8222 5.44632C16.4767 5.49467 17.0299 5.55905 17.3441 5.64454ZM4.65179 5.62946C3.95089 5.81696 3.40179 6.37054 3.21429 7.07589L4.65179 5.62946ZM21.0156 18.8571V3.14286C21.0156 1.95119 20.0488 0.984375 18.8571 0.984375H3.14286C1.95119 0.984375 0.984375 1.95119 0.984375 3.14286V18.8571C0.984375 20.0488 1.95119 21.0156 3.14286 21.0156H18.8571C20.0488 21.0156 21.0156 20.0488 21.0156 18.8571Z" fill="#B93C91" stroke="black" stroke-width="0.03125"/>
</svg>
